# xmcd
#
# Track frame offsets:
#	182
#	16910
#	36672
#	51645
#	63620
#	81782
#	96105
#	112502
#	125062
#	136045
#	148807
#	165807
#
# Disc length: 2425 seconds
#
# Revision: 2
# Processed by: cddbd v1.5.2PL0 Copyright (c) Steve Scherf et al.
# Submitted via: audiograbber 1.83.01
#
DISCID=a109770c
DTITLE=MS® - Jugo De Hits 9.1
DYEAR=1995
DGENRE=Pop
TTITLE0=Carpenters - (They Long To Be) Close To You
TTITLE1=Jane Birkin and Serge Gainsbourg - Je T'Aime Moi Non Plus
TTITLE2=Eric Burdon and The Animals - San Francisco Nights
TTITLE3=Platters - Only You
TTITLE4=Lobo - I'd Love You To Want Me
TTITLE5=Sergio Mendes - (Sittin' On) The Dock Of The Bay
TTITLE6=Demis Roussos - Forever And Ever
TTITLE7=Bobby Hebb - Sunny
TTITLE8=Marty Wilde - Sea Of Love
TTITLE9=Dusty Springfield - You Don't Have To Say You Love Me
TTITLE10=Yvonne Elliman - I Don't Know How To Love Him
TTITLE11=Player - Baby Come Back
EXTD=MS®
EXTT0=MS®
EXTT1=
EXTT2=
EXTT3=
EXTT4=
EXTT5=
EXTT6=
EXTT7=
EXTT8=
EXTT9=
EXTT10=
EXTT11=
PLAYORDER=
